<svg width="245" height="245" viewBox="0 0 245 245" fill="none" xmlns="http://www.w3.org/2000/svg">
<mask id="mask0_2_84" style="mask-type:alpha" maskUnits="userSpaceOnUse" x="0" y="0" width="245" height="245">
<path d="M122.5 0C54.953 0 0 54.953 0 122.5C0 190.047 54.953 245 122.5 245C190.047 245 245 190.047 245 122.5C245 54.953 190.047 0 122.5 0ZM122.5 230C63.225 230 15 181.775 15 122.5C15 63.225 63.225 15 122.5 15C181.775 15 230 63.225 230 122.5C230 181.775 181.775 230 122.5 230ZM91.094 200.659L185.075 122.5L91.095 44.341L91.094 200.659ZM106.095 76.325L161.616 122.5L106.094 168.675L106.095 76.325Z" fill="black"/>
</mask>
<g mask="url(#mask0_2_84)">
<path d="M122.5 0C54.953 0 0 54.953 0 122.5C0 190.047 54.953 245 122.5 245C190.047 245 245 190.047 245 122.5C245 54.953 190.047 0 122.5 0ZM122.5 230C63.225 230 15 181.775 15 122.5C15 63.225 63.225 15 122.5 15C181.775 15 230 63.225 230 122.5C230 181.775 181.775 230 122.5 230ZM91.094 200.659L185.075 122.5L91.095 44.341L91.094 200.659ZM106.095 76.325L161.616 122.5L106.094 168.675L106.095 76.325Z" fill="black"/>
<path d="M122.5 0C54.953 0 0 54.953 0 122.5C0 190.047 54.953 245 122.5 245C190.047 245 245 190.047 245 122.5C245 54.953 190.047 0 122.5 0ZM122.5 230C63.225 230 15 181.775 15 122.5C15 63.225 63.225 15 122.5 15C181.775 15 230 63.225 230 122.5C230 181.775 181.775 230 122.5 230ZM91.094 200.659L185.075 122.5L91.095 44.341L91.094 200.659ZM106.095 76.325L161.616 122.5L106.094 168.675L106.095 76.325Z" fill="#455774"/>
</g>
</svg>
