<svg width="455" height="455" viewBox="0 0 455 455" fill="none" xmlns="http://www.w3.org/2000/svg">
<path d="M227.5 0C101.761 0 0 101.75 0 227.5C0 353.239 101.75 455 227.5 455C353.24 455 455 353.25 455 227.5C455 101.761 353.25 0 227.5 0ZM227.5 425C118.598 425 30 336.402 30 227.5C30 118.598 118.598 30 227.5 30C336.402 30 425 118.598 425 227.5C425 336.402 336.403 425 227.5 425Z" fill="black"/>
<path d="M227.5 0C101.761 0 0 101.75 0 227.5C0 353.239 101.75 455 227.5 455C353.24 455 455 353.25 455 227.5C455 101.761 353.25 0 227.5 0ZM227.5 425C118.598 425 30 336.402 30 227.5C30 118.598 118.598 30 227.5 30C336.402 30 425 118.598 425 227.5C425 336.402 336.403 425 227.5 425Z" fill="#455774"/>
<path d="M289.139 142.359H165.862C152.903 142.359 142.36 152.902 142.36 165.861V289.139C142.36 302.098 152.903 312.641 165.862 312.641H289.139C302.099 312.641 312.642 302.098 312.642 289.139V165.861C312.642 152.902 302.099 142.359 289.139 142.359ZM282.642 282.642H172.36V172.359H282.642V282.642Z" fill="black"/>
<path d="M289.139 142.359H165.862C152.903 142.359 142.36 152.902 142.36 165.861V289.139C142.36 302.098 152.903 312.641 165.862 312.641H289.139C302.099 312.641 312.642 302.098 312.642 289.139V165.861C312.642 152.902 302.099 142.359 289.139 142.359ZM282.642 282.642H172.36V172.359H282.642V282.642Z" fill="#455774"/>
</svg>
